<svg xmlns="http://www.w3.org/2000/svg" xmlns:xlink="http://www.w3.org/1999/xlink" width="172" zoomAndPan="magnify" viewBox="0 0 129 61.499998" height="82" preserveAspectRatio="xMidYMid meet" version="1.0"><defs><g/></defs><g fill="#ffffff" fill-opacity="1"><g transform="translate(3.472721, 35.253361)"><g><path d="M 19.429688 3.835938 C 16.625 3.789062 12.789062 5.953125 9.417969 7.871094 C 6.617188 9.445312 3.417969 11.265625 2.507812 10.574219 C 2.261719 10.402344 1.941406 9.8125 2.386719 7.796875 C 3.394531 3.34375 5.460938 -4.550781 7.28125 -10.96875 C 9.492188 -18.742188 10.648438 -21.9375 11.214844 -23.242188 C 11.214844 -23.046875 11.191406 -22.773438 11.167969 -22.457031 C 11.140625 -22.183594 11.339844 -21.964844 11.585938 -21.9375 C 11.855469 -21.914062 12.074219 -22.109375 12.101562 -22.382812 C 12.25 -24.128906 12.222656 -24.9375 11.585938 -25.039062 C 11.019531 -25.136719 10.378906 -25.234375 6.589844 -11.929688 C 4.699219 -5.3125 2.535156 2.902344 1.476562 7.574219 C 1.007812 9.566406 1.15625 10.773438 1.941406 11.339844 C 2.238281 11.558594 2.605469 11.65625 3.050781 11.65625 C 4.625 11.65625 7.035156 10.304688 9.886719 8.683594 C 13.160156 6.835938 16.871094 4.722656 19.40625 4.769531 C 19.652344 4.796875 19.871094 4.574219 19.871094 4.328125 C 19.898438 4.058594 19.675781 3.835938 19.429688 3.835938 Z M 19.429688 3.835938 "/></g></g></g><g fill="#ffffff" fill-opacity="1"><g transform="translate(20.141579, 35.253361)"><g><path d="M 8.902344 -5.335938 C 8.683594 -5.507812 8.386719 -5.460938 8.238281 -5.261719 C 7.207031 -3.933594 5.507812 -2.828125 4.207031 -3.074219 C 4.230469 -3.246094 4.253906 -3.417969 4.253906 -3.589844 C 4.425781 -6.371094 3.566406 -6.9375 3.050781 -7.035156 C 2.460938 -7.15625 1.84375 -6.714844 1.550781 -5.976562 C 1.425781 -6.027344 1.277344 -6.027344 1.15625 -5.925781 C 0.171875 -5.3125 -0.640625 -3.738281 -0.195312 -2.042969 C 0.0976562 -1.03125 0.785156 -0.394531 1.695312 -0.394531 C 2.558594 -0.394531 3.46875 -1.03125 3.933594 -2.164062 C 5.65625 -1.796875 7.722656 -3.074219 8.976562 -4.671875 C 9.148438 -4.894531 9.101562 -5.191406 8.902344 -5.335938 Z M 1.722656 -1.328125 C 1.695312 -1.328125 1.695312 -1.328125 1.695312 -1.328125 C 1.082031 -1.351562 0.8125 -1.941406 0.738281 -2.289062 C 0.492188 -3.125 0.6875 -4.28125 1.378906 -4.917969 C 1.425781 -4.082031 1.894531 -3.171875 3.074219 -2.535156 C 2.730469 -1.746094 2.140625 -1.328125 1.722656 -1.328125 Z M 3.320312 -3.640625 C 3.296875 -3.589844 3.296875 -3.542969 3.296875 -3.492188 C 2.359375 -4.105469 2.214844 -4.894531 2.386719 -5.507812 C 2.507812 -5.902344 2.753906 -6.097656 2.878906 -6.097656 C 3 -6.074219 3.417969 -5.609375 3.320312 -3.640625 Z M 3.320312 -3.640625 "/></g></g></g><g fill="#ffffff" fill-opacity="1"><g transform="translate(28.008887, 35.253361)"><g><path d="M 9.886719 -5.484375 C 9.664062 -5.609375 9.371094 -5.535156 9.246094 -5.289062 C 8.65625 -4.28125 7.109375 -1.550781 6.222656 -1.648438 C 6.050781 -1.671875 5.558594 -1.917969 5.066406 -3.640625 C 4.722656 -4.84375 4.253906 -5.976562 3.34375 -6.027344 C 2.679688 -6.074219 1.941406 -5.558594 0.8125 -3.441406 C 1.105469 -4.5 1.425781 -5.558594 1.671875 -6.417969 C 1.769531 -6.738281 1.84375 -7.007812 1.917969 -7.28125 C 1.992188 -7.527344 1.84375 -7.796875 1.597656 -7.871094 C 1.351562 -7.945312 1.082031 -7.796875 1.007812 -7.527344 C 0.933594 -7.28125 0.859375 -6.984375 0.761719 -6.691406 C 0.121094 -4.5 -0.835938 -1.179688 -1.082031 0.835938 C -1.105469 1.058594 -0.960938 1.277344 -0.738281 1.328125 C -0.6875 1.351562 -0.664062 1.351562 -0.613281 1.351562 C -0.417969 1.351562 -0.246094 1.230469 -0.171875 1.058594 C 2.140625 -4.699219 3.074219 -5.089844 3.296875 -5.089844 C 3.34375 -5.089844 3.6875 -4.992188 4.15625 -3.371094 C 4.648438 -1.671875 5.289062 -0.8125 6.125 -0.714844 C 7.378906 -0.566406 8.511719 -2.113281 10.058594 -4.820312 C 10.207031 -5.066406 10.109375 -5.335938 9.886719 -5.484375 Z M 9.886719 -5.484375 "/></g></g></g><g fill="#ffffff" fill-opacity="1"><g transform="translate(36.785849, 35.253361)"><g><path d="M 8.3125 -5.484375 C 8.089844 -5.632812 7.796875 -5.582031 7.648438 -5.363281 C 5.804688 -2.777344 4.304688 -1.15625 2.828125 -0.0976562 C 2.089844 0.417969 1.378906 0.515625 0.910156 0.171875 C 0.613281 -0.0507812 -0.296875 -1.03125 0.761719 -4.476562 C 3.148438 -6.445312 4.453125 -8.3125 4.105469 -9.296875 C 3.984375 -9.59375 3.6875 -9.789062 3.371094 -9.789062 C 2.386719 -9.765625 0.886719 -8.066406 -0.0976562 -4.894531 C -1.304688 -0.984375 -0.320312 0.441406 0.367188 0.933594 C 0.714844 1.207031 1.105469 1.328125 1.550781 1.328125 C 2.113281 1.328125 2.753906 1.105469 3.371094 0.664062 C 4.945312 -0.46875 6.492188 -2.140625 8.410156 -4.820312 C 8.558594 -5.042969 8.511719 -5.335938 8.3125 -5.484375 Z M 3.171875 -8.753906 C 3.074219 -8.363281 2.65625 -7.574219 1.5 -6.394531 C 2.140625 -7.820312 2.828125 -8.511719 3.171875 -8.753906 Z M 3.171875 -8.753906 "/></g></g></g><g fill="#ffffff" fill-opacity="1"><g transform="translate(43.940185, 35.253361)"><g/></g></g><g fill="#ffffff" fill-opacity="1"><g transform="translate(51.487883, 35.253361)"><g><path d="M 19.035156 -23.660156 C 16.871094 -24.988281 13.625 -24.792969 10.402344 -23.265625 C 10.476562 -23.636719 10.550781 -24.003906 10.601562 -24.324219 C 10.648438 -24.570312 10.476562 -24.816406 10.230469 -24.867188 C 9.960938 -24.914062 9.714844 -24.742188 9.664062 -24.472656 C 9.59375 -23.957031 9.46875 -23.367188 9.347656 -22.703125 C 8.828125 -22.429688 8.3125 -22.085938 7.820312 -21.742188 C 3.863281 -18.890625 0.121094 -13.625 1.523438 -7.328125 C 1.574219 -7.082031 1.820312 -6.910156 2.089844 -6.984375 C 2.335938 -7.035156 2.507812 -7.28125 2.433594 -7.550781 C 1.132812 -13.378906 4.648438 -18.296875 8.363281 -20.953125 C 8.609375 -21.128906 8.855469 -21.300781 9.101562 -21.472656 C 8.632812 -19.085938 8.019531 -16.085938 7.355469 -12.789062 C 5.3125 -2.707031 4.082031 3.566406 3.417969 7.5 C 3.199219 7.183594 3.050781 6.761719 3 6.246094 C 2.953125 5.976562 2.730469 5.804688 2.460938 5.828125 C 2.214844 5.855469 2.015625 6.097656 2.042969 6.34375 C 2.164062 7.402344 2.582031 8.164062 3.222656 8.632812 C 2.410156 13.578125 2.679688 13.996094 3.171875 14.140625 C 3.222656 14.167969 3.296875 14.167969 3.34375 14.167969 C 3.8125 14.167969 4.132812 13.550781 4.648438 12.296875 C 4.746094 12.050781 4.648438 11.78125 4.402344 11.683594 C 4.15625 11.585938 3.886719 11.683594 3.789062 11.929688 C 3.738281 12.027344 3.714844 12.101562 3.6875 12.175781 C 3.761719 11.386719 3.910156 10.304688 4.105469 9 C 4.304688 9.027344 4.5 9.050781 4.722656 9.074219 C 4.746094 9.074219 4.769531 9.074219 4.769531 9.074219 C 7.304688 9.074219 11.042969 6.394531 14.3125 2.238281 C 18.199219 -2.65625 20.808594 -8.804688 21.71875 -15.003906 C 22.503906 -20.339844 20.683594 -22.652344 19.035156 -23.660156 Z M 20.78125 -15.152344 C 19.601562 -6.984375 15.765625 -1.105469 13.578125 1.671875 C 10.058594 6.125 6.617188 8.117188 4.769531 8.117188 C 4.769531 8.117188 4.746094 8.117188 4.746094 8.117188 C 4.574219 8.117188 4.425781 8.089844 4.28125 8.066406 C 5.214844 2.535156 6.960938 -6.125 8.289062 -12.59375 C 9.027344 -16.28125 9.714844 -19.601562 10.183594 -22.085938 C 13.304688 -23.757812 16.503906 -24.078125 18.542969 -22.847656 C 20.5625 -21.617188 21.347656 -18.960938 20.78125 -15.152344 Z M 20.78125 -15.152344 "/></g></g></g><g fill="#ffffff" fill-opacity="1"><g transform="translate(72.410011, 35.253361)"><g><path d="M 8.3125 -5.484375 C 8.089844 -5.632812 7.796875 -5.582031 7.648438 -5.363281 C 5.804688 -2.777344 4.304688 -1.15625 2.828125 -0.0976562 C 2.089844 0.417969 1.378906 0.515625 0.910156 0.171875 C 0.613281 -0.0507812 -0.296875 -1.03125 0.761719 -4.476562 C 3.148438 -6.445312 4.453125 -8.3125 4.105469 -9.296875 C 3.984375 -9.59375 3.6875 -9.789062 3.371094 -9.789062 C 2.386719 -9.765625 0.886719 -8.066406 -0.0976562 -4.894531 C -1.304688 -0.984375 -0.320312 0.441406 0.367188 0.933594 C 0.714844 1.207031 1.105469 1.328125 1.550781 1.328125 C 2.113281 1.328125 2.753906 1.105469 3.371094 0.664062 C 4.945312 -0.46875 6.492188 -2.140625 8.410156 -4.820312 C 8.558594 -5.042969 8.511719 -5.335938 8.3125 -5.484375 Z M 3.171875 -8.753906 C 3.074219 -8.363281 2.65625 -7.574219 1.5 -6.394531 C 2.140625 -7.820312 2.828125 -8.511719 3.171875 -8.753906 Z M 3.171875 -8.753906 "/></g></g></g><g fill="#ffffff" fill-opacity="1"><g transform="translate(79.564347, 35.253361)"><g><path d="M 20.757812 -14.511719 C 20.4375 -14.953125 19.011719 -15.222656 3.738281 -14.878906 C 4.230469 -16.871094 4.671875 -18.667969 5.066406 -20.117188 C 5.140625 -20.390625 4.992188 -20.636719 4.746094 -20.710938 C 4.5 -20.78125 4.230469 -20.636719 4.15625 -20.390625 C 3.738281 -18.839844 3.269531 -16.96875 2.753906 -14.855469 C 1.402344 -14.832031 -0.0742188 -14.804688 -1.671875 -14.757812 C -3.863281 -14.707031 -5.582031 -14.660156 -6.246094 -14.660156 C -6.519531 -14.660156 -6.738281 -14.4375 -6.738281 -14.191406 C -6.738281 -13.921875 -6.519531 -13.699219 -6.246094 -13.699219 C -5.558594 -13.722656 -3.835938 -13.75 -1.648438 -13.824219 C -0.492188 -13.847656 0.933594 -13.871094 2.535156 -13.921875 C 1.476562 -9.445312 0.269531 -4.082031 -0.8125 1.15625 C -1.597656 4.992188 -2.238281 8.3125 -2.65625 10.746094 C -2.878906 12.027344 -3.023438 13.035156 -3.097656 13.722656 C -3.199219 14.660156 -3.246094 15.199219 -2.777344 15.371094 C -2.707031 15.371094 -2.65625 15.398438 -2.582031 15.398438 C -2.164062 15.398438 -1.941406 14.804688 -1.746094 14.265625 C -1.648438 14.019531 -1.769531 13.75 -2.015625 13.648438 C -2.066406 13.648438 -2.089844 13.625 -2.140625 13.625 C -1.894531 11.707031 -1.15625 7.402344 0.269531 0.613281 C 1.328125 -4.527344 2.484375 -9.664062 3.515625 -13.945312 C 10.28125 -14.09375 19.0625 -14.214844 20.070312 -13.871094 C 20.242188 -13.722656 20.464844 -13.722656 20.660156 -13.847656 C 20.855469 -13.996094 20.90625 -14.289062 20.757812 -14.511719 Z M 20.757812 -14.511719 "/></g></g></g><g fill="#ffffff" fill-opacity="1"><g transform="translate(82.834199, 35.253361)"><g><path d="M 8.3125 -5.484375 C 8.089844 -5.632812 7.796875 -5.582031 7.648438 -5.363281 C 5.804688 -2.777344 4.304688 -1.15625 2.828125 -0.0976562 C 2.089844 0.417969 1.378906 0.515625 0.910156 0.171875 C 0.613281 -0.0507812 -0.296875 -1.03125 0.761719 -4.476562 C 3.148438 -6.445312 4.453125 -8.3125 4.105469 -9.296875 C 3.984375 -9.59375 3.6875 -9.789062 3.371094 -9.789062 C 2.386719 -9.765625 0.886719 -8.066406 -0.0976562 -4.894531 C -1.304688 -0.984375 -0.320312 0.441406 0.367188 0.933594 C 0.714844 1.207031 1.105469 1.328125 1.550781 1.328125 C 2.113281 1.328125 2.753906 1.105469 3.371094 0.664062 C 4.945312 -0.46875 6.492188 -2.140625 8.410156 -4.820312 C 8.558594 -5.042969 8.511719 -5.335938 8.3125 -5.484375 Z M 3.171875 -8.753906 C 3.074219 -8.363281 2.65625 -7.574219 1.5 -6.394531 C 2.140625 -7.820312 2.828125 -8.511719 3.171875 -8.753906 Z M 3.171875 -8.753906 "/></g></g></g><g fill="#ffffff" fill-opacity="1"><g transform="translate(89.988535, 35.253361)"><g><path d="M 8.117188 -5.582031 C 7.894531 -5.707031 7.601562 -5.65625 7.476562 -5.433594 C 5.804688 -2.902344 3.023438 1.328125 1.207031 0.933594 C 0.910156 0.859375 0.664062 0.664062 0.492188 0.34375 C 0 -0.542969 0.0742188 -2.3125 0.640625 -3.863281 C 1.253906 -5.507812 1.992188 -5.925781 2.140625 -5.902344 C 2.164062 -5.878906 2.3125 -5.558594 2.113281 -4.796875 C 2.042969 -4.527344 2.1875 -4.28125 2.433594 -4.207031 C 2.707031 -4.15625 2.953125 -4.304688 3.023438 -4.550781 C 3.492188 -6.320312 2.679688 -6.714844 2.433594 -6.8125 C 1.523438 -7.082031 0.417969 -6 -0.246094 -4.179688 C -0.8125 -2.65625 -1.058594 -0.492188 -0.320312 0.8125 C -0.0234375 1.378906 0.441406 1.722656 1.007812 1.84375 C 1.15625 1.894531 1.304688 1.894531 1.449219 1.894531 C 3.589844 1.894531 5.902344 -1.328125 8.265625 -4.917969 C 8.410156 -5.140625 8.335938 -5.433594 8.117188 -5.582031 Z M 8.117188 -5.582031 "/></g></g></g><g fill="#ffffff" fill-opacity="1"><g transform="translate(97.265799, 35.253361)"><g><path d="M 20.757812 -14.511719 C 20.4375 -14.953125 19.011719 -15.222656 3.738281 -14.878906 C 4.230469 -16.871094 4.671875 -18.667969 5.066406 -20.117188 C 5.140625 -20.390625 4.992188 -20.636719 4.746094 -20.710938 C 4.5 -20.78125 4.230469 -20.636719 4.15625 -20.390625 C 3.738281 -18.839844 3.269531 -16.96875 2.753906 -14.855469 C 1.402344 -14.832031 -0.0742188 -14.804688 -1.671875 -14.757812 C -3.863281 -14.707031 -5.582031 -14.660156 -6.246094 -14.660156 C -6.519531 -14.660156 -6.738281 -14.4375 -6.738281 -14.191406 C -6.738281 -13.921875 -6.519531 -13.699219 -6.246094 -13.699219 C -5.558594 -13.722656 -3.835938 -13.75 -1.648438 -13.824219 C -0.492188 -13.847656 0.933594 -13.871094 2.535156 -13.921875 C 1.476562 -9.445312 0.269531 -4.082031 -0.8125 1.15625 C -1.597656 4.992188 -2.238281 8.3125 -2.65625 10.746094 C -2.878906 12.027344 -3.023438 13.035156 -3.097656 13.722656 C -3.199219 14.660156 -3.246094 15.199219 -2.777344 15.371094 C -2.707031 15.371094 -2.65625 15.398438 -2.582031 15.398438 C -2.164062 15.398438 -1.941406 14.804688 -1.746094 14.265625 C -1.648438 14.019531 -1.769531 13.75 -2.015625 13.648438 C -2.066406 13.648438 -2.089844 13.625 -2.140625 13.625 C -1.894531 11.707031 -1.15625 7.402344 0.269531 0.613281 C 1.328125 -4.527344 2.484375 -9.664062 3.515625 -13.945312 C 10.28125 -14.09375 19.0625 -14.214844 20.070312 -13.871094 C 20.242188 -13.722656 20.464844 -13.722656 20.660156 -13.847656 C 20.855469 -13.996094 20.90625 -14.289062 20.757812 -14.511719 Z M 20.757812 -14.511719 "/></g></g></g><g fill="#ffffff" fill-opacity="1"><g transform="translate(100.535651, 35.253361)"><g><path d="M 7.183594 -5.582031 C 6.960938 -5.730469 6.691406 -5.65625 6.542969 -5.433594 C 4.894531 -2.777344 2.140625 -0.269531 1.304688 -0.613281 C 1.207031 -0.664062 0.417969 -1.132812 1.5 -5.289062 C 1.550781 -5.558594 1.402344 -5.804688 1.15625 -5.878906 C 0.886719 -5.925781 0.640625 -5.78125 0.566406 -5.535156 C -0.320312 -2.066406 -0.195312 -0.222656 0.910156 0.246094 C 1.082031 0.320312 1.253906 0.34375 1.425781 0.34375 C 3.269531 0.34375 6.097656 -2.953125 7.355469 -4.945312 C 7.476562 -5.164062 7.402344 -5.460938 7.183594 -5.582031 Z M 1.378906 -7.574219 C 2.632812 -7.5 2.605469 -9.074219 1.597656 -8.730469 C 1.082031 -8.582031 0.417969 -7.625 1.378906 -7.574219 Z M 1.378906 -7.574219 "/></g></g></g><g fill="#ffffff" fill-opacity="1"><g transform="translate(106.755745, 35.253361)"><g><path d="M 12.347656 -5.363281 C 12.148438 -5.535156 11.855469 -5.507812 11.683594 -5.3125 C 10.675781 -4.132812 9.320312 -3.542969 8.214844 -3.835938 C 7.304688 -4.082031 6.640625 -4.96875 6.394531 -6.296875 C 6.34375 -6.519531 6.125 -6.664062 5.902344 -6.664062 C 5.679688 -6.664062 5.484375 -6.492188 5.460938 -6.273438 C 4.945312 -2.582031 2.015625 1.820312 0.613281 2.289062 C 0.441406 2.335938 0.394531 2.3125 0.394531 2.289062 C 0.269531 2.1875 -0.566406 1.03125 2.042969 -6.714844 C 2.113281 -6.960938 1.992188 -7.230469 1.746094 -7.304688 C 1.5 -7.402344 1.230469 -7.253906 1.132812 -7.007812 C -1.722656 1.523438 -0.640625 2.605469 -0.296875 2.953125 C -0.148438 3.074219 0.0976562 3.269531 0.46875 3.269531 C 0.589844 3.269531 0.738281 3.246094 0.910156 3.171875 C 1.820312 2.878906 3.050781 1.574219 4.15625 -0.269531 C 4.992188 -1.648438 5.632812 -3.125 6.027344 -4.5 C 6.492188 -3.6875 7.15625 -3.148438 7.96875 -2.925781 C 9.417969 -2.558594 11.140625 -3.246094 12.394531 -4.699219 C 12.566406 -4.894531 12.542969 -5.191406 12.347656 -5.363281 Z M 12.347656 -5.363281 "/></g></g></g><g fill="#ffffff" fill-opacity="1"><g transform="translate(118.36002, 35.253361)"><g><path d="M 8.3125 -5.484375 C 8.089844 -5.632812 7.796875 -5.582031 7.648438 -5.363281 C 5.804688 -2.777344 4.304688 -1.15625 2.828125 -0.0976562 C 2.089844 0.417969 1.378906 0.515625 0.910156 0.171875 C 0.613281 -0.0507812 -0.296875 -1.03125 0.761719 -4.476562 C 3.148438 -6.445312 4.453125 -8.3125 4.105469 -9.296875 C 3.984375 -9.59375 3.6875 -9.789062 3.371094 -9.789062 C 2.386719 -9.765625 0.886719 -8.066406 -0.0976562 -4.894531 C -1.304688 -0.984375 -0.320312 0.441406 0.367188 0.933594 C 0.714844 1.207031 1.105469 1.328125 1.550781 1.328125 C 2.113281 1.328125 2.753906 1.105469 3.371094 0.664062 C 4.945312 -0.46875 6.492188 -2.140625 8.410156 -4.820312 C 8.558594 -5.042969 8.511719 -5.335938 8.3125 -5.484375 Z M 3.171875 -8.753906 C 3.074219 -8.363281 2.65625 -7.574219 1.5 -6.394531 C 2.140625 -7.820312 2.828125 -8.511719 3.171875 -8.753906 Z M 3.171875 -8.753906 "/></g></g></g></svg>